<svg width="80" height="80" viewBox="0 0 80 80" fill="none" xmlns="http://www.w3.org/2000/svg">
<g clip-path="url(#clip0_12961_324)">
<path d="M40 80C34.6 80 29.36 78.94 24.43 76.86C19.67 74.85 15.39 71.96 11.72 68.29C8.05001 64.62 5.16001 60.34 3.15001 55.58C1.07001 50.65 0.0100098 45.41 0.0100098 40.01C0.0100098 34.61 1.07001 29.37 3.15001 24.44C5.16001 19.68 8.05001 15.4 11.72 11.73C15.39 8.06 19.67 5.17 24.43 3.16C29.36 1.08 34.6 0.0200043 40 0.0200043C45.4 0.0200043 50.64 1.08 55.57 3.16C60.33 5.17 64.61 8.06 68.28 11.73C71.95 15.4 74.84 19.68 76.85 24.44C78.94 29.37 79.99 34.61 79.99 40.01C79.99 45.41 78.93 50.65 76.85 55.58C74.84 60.34 71.95 64.62 68.28 68.29C64.61 71.96 60.33 74.85 55.57 76.86C50.64 78.95 45.4 80 40 80ZM40 0.850004C34.71 0.850004 29.59 1.89 24.76 3.93C20.1 5.9 15.91 8.72 12.32 12.32C8.72001 15.92 5.90001 20.1 3.93001 24.76C1.89001 29.59 1.13001 30.06 1.13001 35.35C1.13001 40.64 1.89001 50.42 3.93001 55.24C5.90001 59.9 8.72001 64.09 12.32 67.68C15.92 71.28 20.1 74.1 24.76 76.07C29.59 78.11 34.71 79.15 40 79.15C45.29 79.15 50.41 78.11 55.24 76.07C59.9 74.1 64.09 71.28 67.68 67.68C71.28 64.08 74.1 59.9 76.07 55.24C78.11 50.41 79.15 45.29 79.15 40C79.15 34.71 78.11 29.59 76.07 24.76C74.1 20.1 71.28 15.91 67.68 12.32C64.08 8.72 59.9 5.9 55.24 3.93C50.41 1.89 45.29 0.850004 40 0.850004Z" fill="#0C3C3C"/>
<path d="M40.0001 62.89C33.8901 62.89 28.1401 60.51 23.8201 56.19C19.5001 51.87 17.1201 46.12 17.1201 40.01C17.1201 33.9 19.5001 28.15 23.8201 23.83C28.1401 19.51 33.8901 17.13 40.0001 17.13C46.1101 17.13 51.8601 19.51 56.1801 23.83C60.5001 28.15 62.8801 33.9 62.8801 40.01C62.8801 46.12 60.5001 51.87 56.1801 56.19C51.8601 60.51 46.1101 62.89 40.0001 62.89ZM40.0001 17.66C34.0301 17.66 28.4201 19.98 24.2001 24.2C19.9801 28.42 17.6601 34.03 17.6601 40C17.6601 45.97 19.9801 51.58 24.2001 55.8C28.4201 60.02 34.0301 62.34 40.0001 62.34C45.9701 62.34 51.5801 60.02 55.8001 55.8C60.0201 51.58 62.3401 45.97 62.3401 40C62.3401 34.03 60.0201 28.42 55.8001 24.2C51.5801 19.98 45.9701 17.66 40.0001 17.66Z" fill="#79978A"/>
<path d="M16.5099 17.33L17.2299 17.94L15.5699 19.88L16.3899 20.59L17.6899 19.07L18.4099 19.68L17.1099 21.2L18.5699 22.45L17.8899 23.25L14.1699 20.06L16.5099 17.32V17.33Z" fill="#003535"/>
<path d="M21.6001 17.78L21.9801 18.95L21.0901 19.64L19.6101 14.59L20.4901 13.9L25.0101 16.6L24.1301 17.29L23.0901 16.63L21.6001 17.79V17.78ZM20.8001 15.21L21.3201 16.85L22.2601 16.12L20.8001 15.21Z" fill="#003535"/>
<path d="M24.6899 11.17L26.6599 10.26C26.8799 10.16 27.0999 10.1 27.3299 10.09C27.5499 10.08 27.7599 10.11 27.9599 10.18C28.1599 10.25 28.3299 10.36 28.4899 10.5C28.6499 10.64 28.7699 10.82 28.8699 11.02C28.9799 11.26 29.0299 11.48 29.0199 11.69C29.0199 11.89 28.9799 12.07 28.9299 12.22C28.8699 12.4 28.7899 12.55 28.6699 12.69L30.3999 13.94L29.3799 14.41L27.7999 13.25L26.9699 13.63L27.6899 15.19L26.7399 15.63L24.6899 11.18V11.17ZM27.9099 11.46C27.8299 11.28 27.6999 11.16 27.5399 11.1C27.3799 11.04 27.2099 11.05 27.0299 11.13L26.0399 11.58L26.5799 12.76L27.5699 12.3C27.7499 12.22 27.8699 12.1 27.9299 11.94C27.9899 11.78 27.9899 11.62 27.9099 11.46Z" fill="#003535"/>
<path d="M35.8699 7.63001L36.7899 7.46001L37.6599 12.28L36.6299 12.47L36.0499 9.25001L34.8599 11.51L32.9599 9.83001L33.5399 13.03L32.5099 13.22L31.6399 8.40001L32.5699 8.23001L34.5999 10.03L35.8899 7.63001H35.8699Z" fill="#003535"/>
<path d="M41.2301 11.18L40.7301 12.3L39.6101 12.22L41.8701 7.46001L42.9901 7.54001L44.5701 12.56L43.4501 12.48L43.1101 11.3L41.2201 11.17L41.2301 11.18ZM42.3501 8.73001L41.6401 10.29L42.8301 10.37L42.3501 8.72001V8.73001Z" fill="#003535"/>
<path d="M49.9499 8.96C50.2799 9.06 50.5399 9.2 50.7599 9.37C50.9699 9.54 51.1399 9.71 51.2699 9.88C51.4099 10.08 51.5299 10.28 51.6099 10.5L50.7899 10.9C50.7299 10.75 50.6599 10.61 50.5599 10.48C50.4699 10.37 50.3599 10.25 50.2199 10.14C50.0799 10.02 49.8999 9.93 49.6799 9.87C49.4599 9.8 49.2499 9.78 49.0399 9.79C48.8299 9.81 48.6399 9.86 48.4599 9.94C48.2799 10.03 48.1299 10.15 47.9899 10.3C47.8599 10.45 47.7599 10.63 47.6999 10.84C47.6399 11.05 47.6199 11.25 47.6399 11.45C47.6599 11.65 47.7199 11.84 47.8199 12.01C47.9199 12.18 48.0499 12.33 48.2099 12.46C48.3799 12.59 48.5699 12.69 48.7899 12.76C49.0199 12.83 49.2299 12.86 49.4099 12.84C49.5999 12.83 49.7599 12.8 49.8999 12.76C50.0599 12.71 50.2099 12.64 50.3499 12.55L50.7699 13.33C50.5799 13.46 50.3599 13.57 50.1299 13.65C49.9299 13.71 49.6899 13.76 49.4099 13.78C49.1299 13.8 48.8299 13.76 48.4999 13.66C48.1399 13.55 47.8199 13.38 47.5499 13.16C47.2799 12.94 47.0599 12.69 46.8999 12.41C46.7399 12.13 46.6399 11.82 46.5899 11.5C46.5499 11.17 46.5799 10.85 46.6799 10.53C46.7799 10.21 46.9399 9.92 47.1499 9.68C47.3599 9.44 47.6199 9.24 47.9199 9.1C48.2099 8.96 48.5299 8.87 48.8799 8.84C49.2299 8.81 49.5799 8.85 49.9399 8.96H49.9499Z" fill="#003535"/>
<path d="M54.6899 10.9L55.6199 11.39L53.3399 15.73L52.4099 15.24L54.6899 10.9Z" fill="#003535"/>
<path d="M57.0499 16.72L56.0099 17.37L55.1299 16.68L59.6699 14.02L60.5499 14.71L59.0399 19.75L58.1599 19.06L58.5399 17.89L57.0499 16.72ZM59.3499 15.32L57.8899 16.22L58.8299 16.95L59.3599 15.32H59.3499Z" fill="#003535"/>
<path d="M62.91 21.91C63.02 21.82 63.07 21.7 63.05 21.56C63.04 21.42 62.99 21.26 62.93 21.08C62.86 20.91 62.78 20.72 62.7 20.52C62.61 20.32 62.55 20.12 62.52 19.92C62.48 19.72 62.49 19.52 62.55 19.32C62.6 19.12 62.74 18.93 62.95 18.75C63.09 18.63 63.25 18.55 63.43 18.51C63.61 18.46 63.8 18.46 63.99 18.5C64.18 18.54 64.37 18.61 64.56 18.73C64.75 18.85 64.93 19.01 65.1 19.21C65.27 19.42 65.4 19.62 65.47 19.82C65.54 20.02 65.59 20.2 65.61 20.36C65.63 20.54 65.63 20.71 65.61 20.88L64.71 20.81C64.72 20.7 64.72 20.6 64.71 20.49C64.7 20.4 64.67 20.3 64.63 20.18C64.59 20.07 64.53 19.96 64.44 19.85C64.31 19.69 64.16 19.6 64.01 19.57C63.86 19.54 63.73 19.57 63.63 19.66C63.52 19.75 63.47 19.87 63.48 20.01C63.5 20.15 63.54 20.31 63.61 20.49C63.68 20.67 63.76 20.85 63.84 21.05C63.93 21.25 63.99 21.45 64.02 21.65C64.06 21.85 64.05 22.06 63.99 22.25C63.93 22.45 63.8 22.64 63.59 22.81C63.43 22.94 63.25 23.04 63.06 23.09C62.87 23.14 62.68 23.15 62.47 23.11C62.27 23.07 62.06 22.99 61.86 22.86C61.66 22.73 61.46 22.55 61.27 22.32C61.07 22.08 60.93 21.85 60.85 21.62C60.77 21.39 60.71 21.18 60.69 21C60.67 20.78 60.67 20.58 60.7 20.38L61.56 20.49C61.54 20.61 61.54 20.74 61.56 20.88C61.57 20.99 61.61 21.12 61.66 21.26C61.71 21.4 61.8 21.54 61.92 21.69C62.09 21.89 62.26 22.01 62.44 22.04C62.61 22.07 62.77 22.04 62.9 21.92L62.91 21.91Z" fill="#003535"/>
<path d="M15.55 55.07C15.71 55.34 15.8 55.6 15.83 55.86C15.86 56.11 15.86 56.34 15.83 56.53C15.8 56.76 15.73 56.98 15.64 57.18L14.79 56.96C14.85 56.82 14.89 56.67 14.92 56.52C14.94 56.38 14.94 56.23 14.92 56.07C14.9 55.9 14.84 55.73 14.74 55.55C14.63 55.37 14.5 55.22 14.35 55.1C14.19 54.98 14.02 54.9 13.84 54.85C13.65 54.8 13.46 54.79 13.27 54.82C13.07 54.85 12.88 54.91 12.69 55.02C12.51 55.13 12.35 55.26 12.23 55.42C12.11 55.58 12.02 55.75 11.97 55.93C11.92 56.11 11.9 56.3 11.93 56.5C11.95 56.69 12.02 56.88 12.12 57.06C12.23 57.25 12.35 57.4 12.5 57.5C12.64 57.61 12.77 57.69 12.9 57.74C13.05 57.8 13.2 57.84 13.35 57.86L13.1 58.67C12.88 58.65 12.66 58.59 12.44 58.5C12.26 58.42 12.06 58.31 11.85 58.15C11.64 58 11.46 57.78 11.3 57.51C11.13 57.21 11.02 56.9 10.98 56.58C10.94 56.26 10.97 55.95 11.05 55.64C11.13 55.34 11.27 55.06 11.47 54.8C11.67 54.54 11.91 54.33 12.2 54.16C12.49 53.99 12.8 53.89 13.12 53.84C13.44 53.8 13.75 53.82 14.05 53.89C14.35 53.97 14.63 54.1 14.9 54.3C15.17 54.5 15.38 54.74 15.55 55.04V55.07Z" fill="#003535"/>
<path d="M17.62 58.14L18.97 59.61C19.12 59.77 19.23 59.95 19.3 60.15C19.37 60.35 19.39 60.54 19.38 60.74C19.36 60.94 19.31 61.13 19.22 61.32C19.13 61.51 19 61.68 18.83 61.83C18.63 62.01 18.44 62.13 18.25 62.19C18.06 62.25 17.89 62.28 17.74 62.28C17.56 62.28 17.39 62.26 17.23 62.2L16.51 64.16L15.81 63.4L16.49 61.6L15.93 60.98L14.67 62.14L14.02 61.43L17.63 58.12L17.62 58.14ZM18.17 61.12C18.31 60.99 18.39 60.84 18.41 60.67C18.42 60.5 18.37 60.35 18.25 60.22L17.58 59.48L16.62 60.36L17.29 61.09C17.41 61.22 17.56 61.29 17.72 61.29C17.89 61.29 18.03 61.23 18.16 61.11L18.17 61.12Z" fill="#003535"/>
<path d="M21.9399 67.29L21.3799 68.05L18.6599 66.05L21.5699 62.1L24.2299 64.06L23.6699 64.82L21.7799 63.43L21.1999 64.22L22.6699 65.31L22.1099 66.07L20.6399 64.98L19.9999 65.85L21.9399 67.28V67.29Z" fill="#003535"/>
<path d="M27.4899 65.84C27.7899 65.98 28.0399 66.17 28.2399 66.41C28.4399 66.65 28.5899 66.91 28.6799 67.19C28.7699 67.48 28.8099 67.78 28.7899 68.1C28.7699 68.42 28.6899 68.73 28.5399 69.04C28.3899 69.35 28.1999 69.61 27.9699 69.83C27.7399 70.05 27.4799 70.22 27.1999 70.33C26.9199 70.44 26.6199 70.49 26.3099 70.49C25.9999 70.49 25.6999 70.41 25.3999 70.27L23.8899 69.56L25.9799 65.13L27.4899 65.84ZM26.4499 66.39L25.1599 69.11L25.7999 69.41C25.9699 69.49 26.1399 69.53 26.3199 69.53C26.4999 69.53 26.6799 69.49 26.8499 69.42C27.0199 69.35 27.1799 69.25 27.3199 69.11C27.4599 68.98 27.5799 68.81 27.6699 68.62C27.7599 68.43 27.8099 68.24 27.8299 68.04C27.8499 67.84 27.8299 67.66 27.7799 67.49C27.7299 67.32 27.6499 67.16 27.5299 67.02C27.4099 66.88 27.2699 66.77 27.0899 66.69L26.4499 66.39Z" fill="#003535"/>
<path d="M33.74 72.13L33.5 73.05L30.23 72.2L31.46 67.46L34.66 68.29L34.42 69.21L32.15 68.62L31.9 69.57L33.67 70.03L33.43 70.94L31.66 70.48L31.39 71.53L33.72 72.14L33.74 72.13Z" fill="#003535"/>
<path d="M40.6801 68.91L40.3401 73.8L39.5101 73.74L37.5101 70.48L37.3001 73.59L36.3401 73.52L36.6801 68.63L37.5101 68.69L39.5101 71.95L39.7201 68.84L40.6801 68.91Z" fill="#003535"/>
<path d="M45.0599 68.54C45.3699 68.5 45.6499 68.51 45.8899 68.59C46.1299 68.66 46.3399 68.75 46.5099 68.85C46.7099 68.97 46.8799 69.11 47.0299 69.28L46.4999 69.98C46.3899 69.87 46.2799 69.77 46.1499 69.69C46.0299 69.62 45.8899 69.56 45.7299 69.51C45.5699 69.46 45.3799 69.45 45.1699 69.48C44.9599 69.51 44.7699 69.57 44.6099 69.67C44.4399 69.77 44.2999 69.89 44.1899 70.05C44.0699 70.2 43.9899 70.37 43.9399 70.57C43.8899 70.76 43.8799 70.97 43.9099 71.18C43.9399 71.39 43.9999 71.59 44.0999 71.76C44.1999 71.93 44.3199 72.08 44.4699 72.2C44.6199 72.32 44.7899 72.4 44.9799 72.46C45.1699 72.51 45.3699 72.53 45.5699 72.5C45.7899 72.47 45.9699 72.41 46.1199 72.33C46.2699 72.24 46.3999 72.15 46.4999 72.05C46.6199 71.94 46.7099 71.81 46.7899 71.68L47.4399 72.22C47.3299 72.42 47.1899 72.6 47.0299 72.77C46.8899 72.91 46.7099 73.05 46.4799 73.18C46.2599 73.31 45.9899 73.4 45.6799 73.44C45.3399 73.48 45.0099 73.46 44.6999 73.37C44.3899 73.28 44.1099 73.14 43.8599 72.95C43.6199 72.76 43.4099 72.52 43.2499 72.24C43.0899 71.96 42.9899 71.65 42.9399 71.32C42.8999 70.99 42.9199 70.66 42.9999 70.35C43.0899 70.04 43.2199 69.76 43.4099 69.51C43.5999 69.26 43.8299 69.05 44.1099 68.89C44.3899 68.73 44.6999 68.62 45.0399 68.57L45.0599 68.54Z" fill="#003535"/>
<path d="M48.77 67.78L49.69 67.51L51.07 72.21L50.15 72.48L48.77 67.78Z" fill="#003535"/>
<path d="M54.29 69.78L54.44 70.99L53.51 71.43L53 66.25L53.93 65.81L57.63 69.47L56.7 69.91L55.86 69.03L54.29 69.78ZM53.99 67.13L54.19 68.82L55.18 68.35L53.99 67.13Z" fill="#003535"/>
<path d="M58.26 63.1C58.52 62.9 58.8 62.76 59.11 62.69C59.41 62.62 59.71 62.61 60.01 62.65C60.31 62.69 60.59 62.8 60.87 62.97C61.15 63.14 61.39 63.35 61.6 63.62C61.81 63.89 61.96 64.18 62.05 64.49C62.14 64.8 62.17 65.1 62.14 65.4C62.11 65.7 62.03 65.99 61.88 66.26C61.73 66.53 61.53 66.77 61.27 66.97L59.95 67.99L56.96 64.11L58.28 63.09L58.26 63.1ZM58.28 64.28L60.12 66.66L60.68 66.23C60.83 66.12 60.94 65.98 61.03 65.82C61.11 65.66 61.16 65.49 61.17 65.3C61.18 65.12 61.17 64.93 61.11 64.74C61.06 64.55 60.96 64.38 60.84 64.21C60.71 64.04 60.56 63.91 60.4 63.81C60.23 63.71 60.06 63.64 59.88 63.6C59.7 63.56 59.52 63.57 59.34 63.6C59.16 63.64 59 63.72 58.84 63.84L58.28 64.27V64.28Z" fill="#003535"/>
<path d="M64.7201 62.23L65.3601 63.27L64.7001 64.06L62.0801 59.56L62.7401 58.77L67.6301 60.56L66.9701 61.35L65.8401 60.9L64.7301 62.23H64.7201ZM63.3401 59.95L64.2201 61.4L64.9201 60.56L63.3301 59.95H63.3401Z" fill="#003535"/>
<path d="M68.63 55.78C68.5 55.71 68.38 55.71 68.26 55.78C68.14 55.84 68.01 55.93 67.89 56.05C67.77 56.17 67.63 56.3 67.49 56.44C67.35 56.58 67.2 56.7 67.03 56.8C66.86 56.9 66.68 56.96 66.48 56.98C66.28 57 66.06 56.95 65.81 56.82C65.65 56.74 65.51 56.62 65.39 56.48C65.27 56.34 65.19 56.18 65.15 56C65.1 55.82 65.09 55.63 65.11 55.42C65.13 55.21 65.2 55 65.31 54.79C65.42 54.57 65.55 54.39 65.7 54.26C65.85 54.13 65.99 54.03 66.12 53.95C66.27 53.87 66.42 53.81 66.58 53.78L66.89 54.59C66.79 54.62 66.7 54.65 66.61 54.7C66.53 54.74 66.45 54.8 66.37 54.87C66.28 54.94 66.21 55.04 66.15 55.15C66.06 55.32 66.04 55.48 66.08 55.62C66.12 55.76 66.2 55.86 66.32 55.92C66.45 55.99 66.58 55.99 66.7 55.92C66.82 55.85 66.94 55.77 67.07 55.65C67.2 55.53 67.33 55.4 67.47 55.26C67.61 55.12 67.76 55 67.93 54.9C68.1 54.8 68.28 54.74 68.48 54.72C68.68 54.7 68.9 54.75 69.15 54.88C69.34 54.98 69.49 55.1 69.61 55.25C69.73 55.4 69.82 55.57 69.87 55.76C69.92 55.95 69.93 56.16 69.9 56.38C69.87 56.6 69.79 56.83 69.67 57.08C69.54 57.33 69.39 57.53 69.22 57.68C69.05 57.83 68.89 57.95 68.73 58.03C68.55 58.12 68.36 58.19 68.17 58.23L67.9 57.44C68.02 57.41 68.13 57.37 68.25 57.31C68.35 57.26 68.45 57.19 68.55 57.09C68.65 57 68.75 56.87 68.82 56.72C68.93 56.5 68.96 56.31 68.92 56.15C68.87 55.99 68.78 55.87 68.63 55.79V55.78Z" fill="#003535"/>
<path fill-rule="evenodd" clip-rule="evenodd" d="M36.1199 49.95C35.7099 49.95 35.4599 49.65 35.4599 49.15C35.4599 46.81 40.1999 41.48 44.9399 36.97C44.1399 42.04 38.8499 49.95 36.1299 49.95H36.1199ZM53.0999 29C52.4499 29.02 51.1099 29.06 49.9399 29.08C49.5299 29.08 49.3599 29.27 49.4199 29.53C49.4799 29.84 49.6899 30.06 49.9999 30.07C50.3999 30.08 50.9399 30.01 51.6199 29.98C50.0599 31.16 48.1699 32.71 46.2199 34.43C45.9899 32.7 45.1699 31.31 43.5599 31.31C41.2199 31.31 38.8699 34.81 37.8499 36.76C37.7499 35.16 37.0299 33.66 35.5099 33.66C32.3299 33.66 29.6899 40.75 29.6899 41.81C29.6899 42.17 30.1099 42.45 30.3699 42.45C30.6799 42.45 30.7799 42.3 30.8799 41.95C32.1999 37.7 34.1899 34.76 35.5199 34.76C36.1799 34.76 36.6899 35.51 36.6899 37.26C36.6899 38.55 36.4699 39.33 36.4699 39.63C36.4699 40.11 36.8999 40.35 37.1499 40.35C37.4599 40.35 37.5599 40.2 37.7099 39.85C39.2399 36.15 41.7399 32.46 43.5199 32.46C44.3999 32.46 44.9999 33.56 45.0399 35.5C39.6899 40.36 34.3099 46.22 34.3099 49.11C34.3099 50.31 34.9799 51 36.0799 51C40.0099 51 46.1599 41.42 46.2999 35.7C48.4899 33.68 50.5699 31.92 52.0699 30.8C51.8399 31.36 51.6099 31.91 51.4899 32.32C51.3999 32.62 51.4599 32.95 51.8299 33.09C52.0699 33.18 52.2799 33.05 52.3699 32.79C52.9299 31.21 53.2199 30.56 53.5699 29.66C53.7999 29.07 53.7699 28.99 53.1099 29H53.0999Z" fill="#0B3B3C"/>
</g>
<defs>
<clipPath id="clip0_12961_324">
<rect width="80" height="80" fill="white"/>
</clipPath>
</defs>
</svg>
